<svg width="702" height="494" viewBox="0 0 702 494" fill="none" xmlns="http://www.w3.org/2000/svg">
<rect x="9" y="8" width="684" height="478" stroke="#0473E9" stroke-width="16"/>
<path d="M409 0H701.5L675 25H433L409 0Z" fill="#9AE97C"/>
<path d="M701 0V289L675 262.817V23.7128L701 0Z" fill="#9AE97C"/>
<path d="M462 0H701L679.347 25H481.61L462 0Z" fill="#39D100"/>
<path d="M701 0V237L675 215.528V19.4462L701 0Z" fill="#39D100"/>
<path d="M296.003 493.636L0.503436 493.533L27.284 468.543L271.766 468.628L296.003 493.636Z" fill="#9AE97C"/>
<path d="M1.00854 493.533L1.10942 204.533L27.3669 230.726L27.2835 469.83L1.00854 493.533Z" fill="#9AE97C"/>
<path d="M242.46 493.618L1.00852 493.533L22.8923 468.541L222.657 468.611L242.46 493.618Z" fill="#39D100"/>
<path d="M1.00854 493.533L1.09127 256.533L27.3504 278.014L27.282 474.096L1.00854 493.533Z" fill="#39D100"/>
</svg>
